Coordinates
version=1
nRows=65
nColumns=12
inDegrees=yes

Units are S.I. units (second, meters, Newtons, ...)
Angles are in degrees

endheader
time	SC_y	SC_z	SC_x	AC_y	AC_z	AC_x	GH_y	GH_z	GH_yy	EL_x	PS_y
       0.0              -50.61          27.24          84.66          63.92          4.667        0.08086         -155.1         -11.17         -84.81          56.32          58.34
   0.01203              -50.61          27.25          84.65          63.92          4.665        0.07988         -155.1         -11.16          -84.8          56.34          58.36
   0.02405               -50.6          27.25          84.65          63.92          4.663        0.07885         -155.1         -11.15         -84.79          56.35          58.37
   0.03608               -50.6          27.25          84.64          63.92          4.661        0.07775         -155.0         -11.14         -84.79          56.36          58.38
    0.0481               -50.6          27.25          84.64          63.92          4.659        0.07657         -155.0         -11.14         -84.78          56.38           58.4
   0.06013              -50.59          27.25          84.63          63.92          4.657        0.07532         -155.0         -11.13         -84.77          56.39          58.41
   0.07215              -50.59          27.25          84.62          63.92          4.654        0.07399         -155.0         -11.12         -84.75          56.41          58.43
   0.08418              -50.59          27.25          84.62          63.92          4.652        0.07256         -155.0         -11.11         -84.74          56.42          58.45
   0.09621              -50.58          27.25          84.61          63.92          4.649        0.07103         -155.0          -11.1         -84.73          56.44          58.47
    0.1082              -50.58          27.26           84.6          63.92          4.646         0.0694         -154.9         -11.09         -84.72          56.46          58.49
    0.1203              -50.57          27.26          84.59          63.92          4.642        0.06764         -154.9         -11.08          -84.7          56.48          58.51
    0.1323              -50.57          27.26          84.58          63.92          4.639        0.06574         -154.9         -11.06         -84.69          56.51          58.54
    0.1443              -50.56          27.26          84.57          63.92          4.635         0.0637         -154.9         -11.05         -84.67          56.53          58.56
    0.1563              -50.55          27.26          84.56          63.91          4.631        0.06149         -154.9         -11.03         -84.65          56.56          58.59
    0.1684              -50.55          27.27          84.55          63.91          4.626         0.0591         -154.8         -11.02         -84.63          56.58          58.62
    0.1804              -50.54          27.27          84.53          63.91          4.622        0.05651         -154.8          -11.0         -84.61          56.62          58.66
    0.1924              -50.53          27.27          84.52          63.91          4.616         0.0537         -154.8         -10.98         -84.59          56.65          58.69
    0.2044              -50.52          27.28           84.5          63.91           4.61        0.05063         -154.7         -10.96         -84.57          56.69          58.73
    0.2165              -50.51          27.28          84.48          63.91          4.604        0.04729         -154.7         -10.94         -84.54          56.73          58.78
    0.2285               -50.5          27.28          84.47          63.91          4.597        0.04362         -154.6         -10.91         -84.51          56.77          58.82
    0.2405              -50.49          27.29          84.44          63.91           4.59         0.0396         -154.6         -10.89         -84.48          56.82          58.88
    0.2525              -50.48          27.29          84.42          63.91          4.581        0.03517         -154.5         -10.85         -84.44          56.87          58.93
    0.2646              -50.46           27.3           84.4          63.91          4.572        0.03027         -154.5         -10.82          -84.4          56.93           59.0
    0.2766              -50.45           27.3          84.37          63.91          4.562        0.02485         -154.4         -10.78         -84.36           57.0          59.07
    0.2886              -50.43          27.31          84.34          63.91          4.551        0.01883         -154.4         -10.74         -84.31          57.07          59.14
    0.3006              -50.41          27.32           84.3          63.91          4.538         0.0121         -154.3          -10.7         -84.26          57.15          59.23
    0.3127              -50.39          27.33          84.26          63.91          4.524       0.004569         -154.2         -10.65         -84.19          57.24          59.33
    0.3247              -50.37          27.33          84.22          63.91          4.508      -0.003905         -154.1         -10.59         -84.13          57.34          59.44
    0.3367              -50.34          27.34          84.17          63.91           4.49       -0.01348         -154.0         -10.52         -84.05          57.46          59.56
    0.3487              -50.31          27.36          84.11           63.9           4.47       -0.02435         -153.9         -10.45         -83.96          57.59           59.7
    0.3608              -50.27          27.37          84.05           63.9          4.446       -0.03676         -153.7         -10.37         -83.86          57.74          59.86
    0.3728              -50.23          27.38          83.97           63.9           4.42         -0.051         -153.5         -10.27         -83.75          57.91          60.05
    0.3848              -50.18           27.4          83.89           63.9          4.389       -0.06744         -153.4         -10.16         -83.61          58.11          60.26
    0.3968              -50.13          27.42          83.79           63.9          4.353       -0.08654         -153.1         -10.03         -83.46          58.34           60.5
    0.4089              -50.06          27.45          83.67          63.89          4.311        -0.1089         -152.9         -9.875         -83.28           58.6          60.79
    0.4209              -49.99          27.47          83.54          63.89          4.261        -0.1352         -152.6         -9.696         -83.07          58.92          61.13
    0.4329               -49.9          27.51          83.38          63.89          4.203        -0.1666         -152.2         -9.483         -82.81           59.3          61.54
     0.445              -49.79          27.55          83.18          63.88          4.132        -0.2041         -151.8         -9.228         -82.51          59.75          62.02
     0.457              -49.66           27.6          82.95          63.88          4.047        -0.2495         -151.2         -8.919         -82.14          60.29          62.61
     0.469               -49.5          27.65          82.66          63.87          3.943         -0.305         -150.6         -8.541          -81.7          60.96          63.32
     0.481               -49.3          27.73           82.3          63.86          3.814        -0.3734         -149.8         -8.076         -81.14          61.78          64.21
    0.4931              -49.06          27.82          81.86          63.85          3.654        -0.4588         -148.8         -7.495         -80.45          62.81          65.31
    0.5051              -48.75          27.93           81.3          63.84          3.452        -0.5664         -147.5         -6.764         -79.59           64.1           66.7
    0.5171              -48.35          28.08          80.59          63.82          3.195        -0.7031         -145.9         -5.834         -78.48          65.74          68.46
    0.5291              -47.85          28.26          79.69           63.8          2.866        -0.8781         -143.9         -4.643         -77.07          67.85          70.72
    0.5412               -47.2           28.5          78.52          63.77          2.445         -1.103         -141.3         -3.116         -75.26          70.55          73.62
    0.5532              -46.37          28.81          77.03          63.73          1.906          -1.39         -137.9         -1.165         -72.94          73.99          77.32
    0.5652              -45.33          29.19          75.16          63.69          1.228          -1.75         -133.7          1.288         -70.03          78.33          81.97
    0.5772              -44.07          29.65          72.88          63.63         0.4029          -2.19         -128.6          4.278         -66.48          83.61          87.65
    0.5893               -42.6           30.2          70.24          63.57        -0.5539         -2.699         -122.7          7.743         -62.37          89.73          94.22
    0.6013              -41.01          30.78          67.38           63.5          -1.59         -3.251         -116.2           11.5         -57.91          96.36          101.3
    0.6133              -39.42          31.37          64.52          63.43         -2.626         -3.803         -109.8          15.25         -53.46          103.0          108.5
    0.6253              -37.95          31.91          61.88          63.37         -3.583         -4.312         -103.9          18.71         -49.35          109.1          115.0
    0.6374              -36.68          32.37           59.6          63.32         -4.408         -4.752         -98.76           21.7          -45.8          114.4          120.7
    0.6494              -35.64          32.76          57.73          63.27         -5.086         -5.112         -94.55          24.16         -42.89          118.7          125.4
    0.6614              -34.82          33.06          56.24          63.24         -5.624         -5.399         -91.21          26.11         -40.57          122.2          129.1
    0.6734              -34.17           33.3          55.08          63.21         -6.046         -5.624         -88.59          27.63         -38.76          124.9          132.0
    0.6855              -33.67          33.49          54.17          63.19         -6.375         -5.799         -86.55          28.83         -37.34          127.0          134.2
    0.6975              -33.27          33.63          53.46          63.17         -6.632         -5.935         -84.96          29.75         -36.24          128.6          136.0
    0.7095              -32.96          33.75           52.9          63.16         -6.834         -6.043         -83.71          30.49         -35.37          129.9          137.4
    0.7215              -32.72          33.84          52.46          63.15         -6.994         -6.128         -82.71          31.07         -34.68          130.9          138.5
    0.7336              -32.52          33.91           52.1          63.14         -7.123         -6.197         -81.91          31.53         -34.13          131.8          139.4
    0.7456              -32.36          33.97          51.82          63.13         -7.227         -6.252         -81.27          31.91         -33.68          132.4          140.1
    0.7576              -32.23          34.02          51.58          63.12         -7.312         -6.298         -80.74          32.22         -33.32          133.0          140.7
    0.7696              -32.12          34.06          51.39          63.12         -7.382         -6.335          -80.3          32.47         -33.01          133.4          141.1
